<svg width="14" height="14" viewBox="0 0 14 14" fill="none" xmlns="http://www.w3.org/2000/svg">
<path d="M6.48696 3.86051V1.18783C6.48696 0.903644 6.71362 0.666824 7.00029 0.666824C7.25696 0.666824 7.47441 0.865819 7.50887 1.11788L7.51362 1.18783V3.86051L10.7002 3.86071C12.2869 3.86071 13.5905 5.16001 13.6636 6.78043L13.6669 6.92422V10.2838C13.6669 11.9155 12.4087 13.255 10.8456 13.3302L10.7069 13.3335L3.29356 13.3335C1.70689 13.3335 0.409617 12.0407 0.336782 10.4143L0.333557 10.27L0.333557 6.91733C0.333557 5.28556 1.5855 3.93963 3.14822 3.86406L3.28689 3.86071L6.48689 3.86071V8.12897L5.42022 7.02748C5.22022 6.82095 4.89356 6.82095 4.69356 7.02748C4.59356 7.13075 4.54689 7.26843 4.54689 7.40612C4.54689 7.51076 4.57676 7.61981 4.6399 7.71211L4.69356 7.77787L6.63356 9.78808C6.72689 9.89135 6.86022 9.94642 7.00022 9.94642C7.11133 9.94642 7.22245 9.90818 7.31041 9.83567L7.36022 9.78808L9.30022 7.77787C9.50022 7.57134 9.50022 7.23401 9.30022 7.02748C9.1184 6.83973 8.8319 6.82266 8.63105 6.97628L8.57356 7.02748L7.51356 8.12897V3.86071L6.48696 3.86051Z" fill="#808191"/>
</svg>
