<svg width="13" height="8" viewBox="0 0 13 8" fill="none" xmlns="http://www.w3.org/2000/svg">
<path fill-rule="evenodd" clip-rule="evenodd" d="M5.22647 4.0048L5.22748 4.24087C5.23559 5.17719 5.29203 6.01257 5.38937 6.54198C5.38937 6.55153 5.49556 7.07659 5.56319 7.25136C5.66937 7.50398 5.86137 7.71841 6.10209 7.85426C6.29482 7.9512 6.497 8.0004 6.70863 8.0004C6.87499 7.99269 7.14935 7.90897 7.34517 7.83878L7.50789 7.77642C8.5857 7.34829 10.646 5.94936 11.4351 5.09384L11.4933 5.03404L11.7529 4.75384C11.9166 4.53941 12.0031 4.27725 12.0031 3.99526C12.0031 3.74264 11.926 3.49002 11.7718 3.28588C11.7257 3.21973 11.6513 3.13488 11.5852 3.06319L11.3324 2.79866C10.4628 1.91754 8.57988 0.681617 7.60389 0.272106C7.60389 0.263294 6.99736 0.00994327 6.70863 0.000396729L6.67009 0.000396729C6.22718 0.000396729 5.81337 0.253013 5.60174 0.661311C5.54392 0.772932 5.48846 0.991585 5.44628 1.18362L5.37047 1.5462C5.28392 2.12928 5.22647 3.02371 5.22647 4.0048ZM1.00528 2.98817C0.451835 2.98817 0.00311279 3.44126 0.00311279 4.0001C0.00311279 4.55894 0.451835 5.01204 1.00528 5.01204L3.47143 4.79393C3.90561 4.79393 4.25761 4.43924 4.25761 4.0001C4.25761 3.5617 3.90561 3.20627 3.47143 3.20627L1.00528 2.98817Z" fill="#808191"/>
</svg>
