<svg width="14" height="14" viewBox="0 0 14 14" fill="none" xmlns="http://www.w3.org/2000/svg">
<path d="M5.09299 12.8495V10.811C5.09299 10.2906 5.51792 9.86878 6.04209 9.86878L7.95821 9.86878C8.20993 9.86878 8.45134 9.96804 8.62933 10.1447C8.80732 10.3214 8.90731 10.5611 8.90731 10.811V12.8495C8.90572 13.0658 8.99118 13.2738 9.14472 13.4274C9.29825 13.5809 9.50717 13.6672 9.7251 13.6672H11.0324C11.6429 13.6688 12.229 13.4291 12.6612 13.0011C13.0935 12.5731 13.3365 11.9919 13.3365 11.3858V5.57848C13.3365 5.08888 13.1178 4.62447 12.7395 4.31035L8.29248 0.784484C7.51891 0.166279 6.41054 0.186239 5.66006 0.83189L1.31447 4.31035C0.918294 4.61521 0.681501 5.081 0.6698 5.57848V11.3799C0.6698 12.6431 1.70139 13.6672 2.97392 13.6672H4.25133C4.70395 13.6672 5.0718 13.3047 5.07508 12.8554L5.09299 12.8495Z" fill="#808191"/>
</svg>
