<svg width="12" height="14" viewBox="0 0 12 14" fill="none" xmlns="http://www.w3.org/2000/svg">
<path fill-rule="evenodd" clip-rule="evenodd" d="M6.10546 10.094L7.99985 8.18069C8.19127 7.98069 8.19127 7.66736 7.99325 7.47403C7.80183 7.28069 7.4916 7.28069 7.30018 7.47403L6.25067 8.54069V5.32736C6.25067 5.04736 6.03285 4.82736 5.76222 4.82736C5.4916 4.82736 5.26717 5.04736 5.26717 5.32736V8.54069L4.21767 7.47403C4.02625 7.28069 3.71602 7.28069 3.5246 7.47403C3.33318 7.66736 3.33318 7.98069 3.5246 8.18069L5.41239 10.094C5.45859 10.1407 5.5114 10.174 5.5708 10.2007C5.63021 10.2274 5.69622 10.2407 5.76222 10.2407C5.82823 10.2407 5.88764 10.2274 5.94704 10.2007C6.00645 10.174 6.05925 10.1407 6.10546 10.094ZM10.8885 5.01777C11.0437 5.01598 11.2126 5.01403 11.3661 5.01403C11.5377 5.01403 11.6698 5.14736 11.6698 5.31403V10.674C11.6698 12.3274 10.3364 13.6674 8.69946 13.6674L3.45194 13.6674C1.72917 13.6674 0.336426 12.2607 0.336426 10.5274V3.3407C0.336426 1.68736 1.66316 0.33403 3.31332 0.33403L6.83808 0.33403C7.00309 0.33403 7.14171 0.47403 7.14171 0.640697V2.78736C7.14171 4.00736 8.13181 5.00736 9.34633 5.01403C9.62529 5.01403 9.87491 5.01615 10.0928 5.01799C10.2616 5.01943 10.4114 5.0207 10.541 5.0207C10.635 5.0207 10.7568 5.01929 10.8885 5.01777ZM11.0728 4.04477C10.5309 4.04677 9.89132 4.04477 9.43125 4.0401C8.70122 4.0401 8.0999 3.43277 8.0999 2.69543V0.938101C8.0999 0.650768 8.44511 0.508101 8.64181 0.715434C9.14989 1.24851 9.92754 2.06533 10.585 2.75594C10.8518 3.03611 11.0987 3.29551 11.2999 3.50677C11.4926 3.70877 11.3514 4.0441 11.0728 4.04477Z" fill="#808191"/>
</svg>
