<svg width="16" height="18" viewBox="0 0 16 18" fill="none" xmlns="http://www.w3.org/2000/svg">
<path fill-rule="evenodd" clip-rule="evenodd" d="M13.5892 6.33027C13.5892 7.37688 13.8659 7.99376 14.4746 8.70465C14.9359 9.22838 15.0834 9.90066 15.0834 10.63C15.0834 11.3585 14.844 12.0501 14.3645 12.6116C13.7367 13.2847 12.8513 13.7144 11.9477 13.7891C10.6383 13.9008 9.32807 13.9948 8.00043 13.9948C6.67197 13.9948 5.36256 13.9385 4.05315 13.7891C3.14873 13.7144 2.26337 13.2847 1.63641 12.6116C1.15687 12.0501 0.916687 11.3585 0.916687 10.63C0.916687 9.90066 1.06494 9.22838 1.52543 8.70465C2.15322 7.99376 2.41162 7.37688 2.41162 6.33027V5.97524C2.41162 4.57361 2.76113 3.65709 3.48085 2.75988C4.55091 1.4514 6.26615 0.666656 7.96316 0.666656H8.0377C9.77116 0.666656 11.5419 1.48917 12.5937 2.85388C13.2762 3.73263 13.5892 4.61054 13.5892 5.97524V6.33027ZM5.5614 15.7174C5.5614 15.2977 5.94652 15.1055 6.30266 15.0233C6.71925 14.9351 9.25774 14.9351 9.67433 15.0233C10.0305 15.1055 10.4156 15.2977 10.4156 15.7174C10.3949 16.1169 10.1605 16.4711 9.83666 16.696C9.41676 17.0233 8.92397 17.2306 8.40882 17.3053C8.12391 17.3423 7.84397 17.3431 7.569 17.3053C7.05302 17.2306 6.56023 17.0233 6.14115 16.6952C5.81649 16.4711 5.58211 16.1169 5.5614 15.7174Z" fill="#808191"/>
</svg>
