<svg width="14" height="12" viewBox="0 0 14 12" fill="none" xmlns="http://www.w3.org/2000/svg">
<path fill-rule="evenodd" clip-rule="evenodd" d="M10.8461 3.58767L13.6669 3.58767C13.6669 1.32286 12.3099 -0.000198364 10.0106 -0.000198364L3.98985 -0.000198364C1.69059 -0.000198364 0.333557 1.32286 0.333557 3.55878V8.44082C0.333557 10.6767 1.69059 11.9998 3.98985 11.9998L10.0106 11.9998C12.3099 11.9998 13.6669 10.6767 13.6669 8.44082V8.23283L10.8461 8.23283C9.53703 8.23283 8.47578 7.19815 8.47578 5.9218C8.47578 4.64546 9.53703 3.61078 10.8461 3.61078V3.58767ZM10.8449 4.58144L13.1679 4.58144C13.4428 4.58144 13.6656 4.79872 13.6656 5.06675V6.7538C13.6624 7.02053 13.4414 7.236 13.1679 7.23912L10.8982 7.23912C10.2355 7.24781 9.65597 6.80541 9.50564 6.17604C9.43036 5.78536 9.53604 5.38221 9.79436 5.07464C10.0527 4.76707 10.4372 4.58654 10.8449 4.58144ZM10.9486 6.35523H11.1679C11.4493 6.35523 11.6775 6.13277 11.6775 5.85836C11.6775 5.58394 11.4493 5.36149 11.1679 5.36149H10.9486C10.814 5.35994 10.6844 5.411 10.5886 5.50326C10.4929 5.59553 10.439 5.72133 10.439 5.85258C10.439 6.12794 10.6662 6.35206 10.9486 6.35523ZM3.49307 3.58804L7.25603 3.58804C7.53749 3.58804 7.76566 3.36559 7.76566 3.09117C7.76566 2.81676 7.53749 2.5943 7.25603 2.5943L3.49307 2.5943C3.21391 2.59428 2.98668 2.81324 2.98344 3.08539C2.98342 3.36076 3.21065 3.58488 3.49307 3.58804Z" fill="#808191"/>
</svg>
